<svg xmlns="http://www.w3.org/2000/svg" viewBox="0 0 1200 760">
<defs>
 <linearGradient id="g" x1="0" y1="0" x2="1" y2="1"><stop stop-color="#f6f0ff"/><stop offset=".55" stop-color="#ffffff"/><stop offset="1" stop-color="#e5d5ff"/></linearGradient>
 <linearGradient id="p" x1="0" x2="1"><stop stop-color="#4f1aa6"/><stop offset="1" stop-color="#8a51ec"/></linearGradient>
</defs>
<rect width="1200" height="760" rx="38" fill="url(#g)"/>
<rect x="90" y="100" width="1020" height="560" rx="28" fill="#fff" stroke="#e4d8f3" stroke-width="4"/>
<text x="140" y="185" font-family="Arial,sans-serif" font-size="30" font-weight="700" fill="#6a4c85">LOCAL ACTION</text>
<text x="140" y="260" font-family="Arial,sans-serif" font-size="68" font-weight="900" fill="#24113f">BUILDING STRONGER</text>
<text x="140" y="325" font-family="Arial,sans-serif" font-size="68" font-weight="900" fill="#6326d7">COMMUNITIES</text>
<g transform="translate(150,380)">
<rect x="0" y="90" width="170" height="120" rx="12" fill="url(#p)"/><path d="M-10 95 85 30l95 65" fill="#8f5ee7"/>
<rect x="250" y="55" width="190" height="155" rx="12" fill="#30184b"/><path d="M235 60 345 0l110 60" fill="#6635a3"/>
<rect x="520" y="100" width="170" height="110" rx="12" fill="#8e5ce0"/><path d="M510 105 605 45l95 60" fill="#a985ec"/>
<circle cx="830" cy="75" r="42" fill="#7f48dc"/><path d="M760 210c10-95 42-135 70-135s60 40 70 135" fill="#4a2675"/>
</g>
</svg>