<svg xmlns="http://www.w3.org/2000/svg" viewBox="0 0 1200 760">
<defs>
 <linearGradient id="bg" x1="0" y1="0" x2="1" y2="1"><stop stop-color="#f7f2ff"/><stop offset="1" stop-color="#dfcdfd"/></linearGradient>
 <linearGradient id="p" x1="0" x2="1"><stop stop-color="#4f1aa6"/><stop offset="1" stop-color="#8d52eb"/></linearGradient>
</defs>
<rect width="1200" height="760" rx="42" fill="url(#bg)"/>
<path d="M0 560C220 430 420 620 650 500S1000 390 1200 470v290H0z" fill="#d2b8f8"/>
<path d="M0 625C210 520 420 680 650 565S1000 470 1200 545v215H0z" fill="#b68cf0"/>
<circle cx="1000" cy="140" r="90" fill="#6f35dc" opacity=".18"/>
<g transform="translate(110,150)">
 <rect x="0" y="120" width="190" height="240" rx="16" fill="#fff"/><rect x="28" y="155" width="48" height="62" fill="#7e4bc7"/><rect x="112" y="155" width="48" height="62" fill="#7e4bc7"/>
 <rect x="250" y="40" width="240" height="320" rx="16" fill="#fff"/><rect x="290" y="85" width="55" height="75" fill="#6230b4"/><rect x="395" y="85" width="55" height="75" fill="#6230b4"/>
 <rect x="545" y="155" width="175" height="205" rx="16" fill="#fff"/><rect x="575" y="195" width="42" height="55" fill="#8b5add"/><rect x="648" y="195" width="42" height="55" fill="#8b5add"/>
</g>
<rect x="95" y="70" width="560" height="120" rx="20" fill="#24113f"/>
<text x="130" y="120" font-family="Arial,sans-serif" font-size="28" font-weight="700" fill="#cdb8f6">OUR FUTURE</text>
<text x="130" y="165" font-family="Arial,sans-serif" font-size="54" font-weight="900" fill="#fff">BUILDING THE NEXT CHAPTER</text>
</svg>